<svg width="123" height="27" viewBox="0 0 123 27" fill="none" xmlns="http://www.w3.org/2000/svg">
<path d="M4.04 5.3V24.38L6.92 25.46V26H0.08V25.46L2.96 24.38V1.88L0.8 1.34V0.799998H5.3C6.548 0.799998 7.532 1.064 8.252 1.592C8.996 2.096 9.632 2.852 10.16 3.86L18.008 18.872L24.02 3.86C24.428 2.804 24.98 2.036 25.676 1.556C26.372 1.052 27.44 0.799998 28.88 0.799998H32.66V1.34L30.5 1.88V24.92L32.66 25.46V26H22.4V25.46L24.56 24.92V5.3L16.1 26.36H15.02L4.04 5.3ZM35.9211 25.46L38.0811 24.92V1.88L35.9211 1.34V0.799998H55.1811V7.28H54.1011C53.6451 6.92 53.2491 6.464 52.9131 5.912C52.1451 4.616 51.7611 3.212 51.7611 1.7H44.0211V13.04H48.1611C48.3291 12.128 48.6411 11.276 49.0971 10.484C49.2891 10.124 49.5171 9.776 49.7811 9.44H50.8611V17.54H49.7811C49.5171 17.204 49.2891 16.856 49.0971 16.496C48.6411 15.704 48.3291 14.852 48.1611 13.94H44.0211V25.1H52.4811C52.4811 23.588 52.8651 22.184 53.6331 20.888C53.9691 20.336 54.3651 19.88 54.8211 19.52H55.9011V26H35.9211V25.46ZM59.1242 25.46L61.2842 24.92V1.88L59.1242 1.34V0.799998H68.3042C72.6002 0.799998 75.8882 1.904 78.1682 4.112C80.4722 6.32 81.6242 9.416 81.6242 13.4C81.6242 17.384 80.4722 20.48 78.1682 22.688C75.8882 24.896 72.6002 26 68.3042 26H59.1242V25.46ZM68.3042 25.1C70.5362 25.1 72.2642 24.2 73.4882 22.4C74.7122 20.576 75.3242 17.576 75.3242 13.4C75.3242 9.224 74.7122 6.236 73.4882 4.436C72.2642 2.612 70.5362 1.7 68.3042 1.7H67.2242V25.1H68.3042Z" fill="#1F2B6C"/>
<path d="M84.8586 26V25.46L87.0186 24.92V1.88L84.8586 1.34V0.799998H95.1186V1.34L92.9586 1.88V24.92L95.1186 25.46V26H84.8586ZM101.599 6.92V24.38L104.479 25.46V26H97.6386V25.46L100.519 24.38V2.06L97.9986 1.34V0.799998H101.779C103.051 0.799998 104.047 1.028 104.767 1.484C105.487 1.94 106.171 2.552 106.819 3.32L118.339 16.82V2.42L115.459 1.34V0.799998H122.299V1.34L119.419 2.42V26.54H118.339L101.599 6.92Z" fill="#159EEC"/>
</svg>
